<svg width="28" height="26" viewBox="0 0 28 26" fill="none" xmlns="http://www.w3.org/2000/svg">
<path d="M18.1442 25.7279H24.2792C24.7149 25.7279 25.0694 25.372 25.0694 24.9346V14.8387H27.2111C27.5324 14.8387 27.8167 14.644 27.9386 14.3494C28.0623 14.0546 27.9958 13.7136 27.7687 13.4856L23.8324 9.53395L23.8306 3.42668C23.8306 2.98925 23.4761 2.63336 23.0404 2.63336H19.189C18.7533 2.63336 18.3988 2.98924 18.3988 3.42668V4.08097L14.5566 0.223813C14.2594 -0.0746042 13.735 -0.0746042 13.4414 0.223813L0.231267 13.4856C0.00417115 13.7136 -0.0622936 14.0546 0.0614043 14.3493C0.185102 14.644 0.473128 14.8386 0.788865 14.8386H2.99705V24.9364C2.99705 25.3738 3.35154 25.7297 3.78728 25.7297H9.98896C10.4247 25.7297 10.7792 25.3739 10.7792 24.9364L10.7755 17.2723H17.3558V24.9345C17.3558 25.3719 17.7103 25.7279 18.1442 25.7279Z" fill="white"/>
</svg>
