<svg width="28" height="22" viewBox="0 0 28 22" fill="none" xmlns="http://www.w3.org/2000/svg">
<path d="M14.0357 21.5843H3.95123C1.41536 21.5843 0.0294868 20.169 0.0294868 17.6626V7.34221C0.0294868 7.07683 -0.0884603 6.72299 0.147434 6.57555C0.442302 6.42812 0.678196 6.72299 0.943577 6.87042C4.33456 9.02295 7.72553 11.146 11.1165 13.2985C12.5319 14.2126 14.0062 14.596 15.628 14.2126C16.3357 14.0652 16.8959 13.7113 17.4267 13.328C20.6702 11.205 23.8548 9.08193 27.0983 6.95888C27.3342 6.81145 27.5112 6.48709 27.8355 6.6935C28.0714 6.84093 27.9535 7.16529 27.9535 7.40118V17.7805C27.9535 20.0215 26.4496 21.5253 24.2086 21.5548C20.8471 21.6138 17.4562 21.5843 14.0357 21.5843Z" fill="white"/>
<path d="M13.9767 0H24.3561C26.1548 0 27.5701 1.1205 27.9534 2.86022C28.0714 3.39098 27.9829 3.74482 27.4817 4.09866C23.5599 6.63452 19.6087 9.22936 15.687 11.8242C14.8024 12.4139 13.8883 12.4139 12.9742 11.8242C8.84602 9.19987 4.71788 6.57555 0.560241 3.95123C-0.029494 3.59739 -0.0589808 3.15508 0.088453 2.59484C0.501268 1.06152 1.88715 0 3.50892 0C7.04733 0 10.5268 0 13.9767 0Z" fill="white"/>
</svg>
