<svg width="27" height="28" viewBox="0 0 27 28" fill="none" xmlns="http://www.w3.org/2000/svg">
<path fill-rule="evenodd" clip-rule="evenodd" d="M3.65146 23.1958C3.15041 23.4611 2.53146 23.2842 2.23673 22.7832L0.144094 19.1874C-0.150643 18.6863 0.0261988 18.0674 0.497778 17.7726L1.94199 16.8884C2.41357 16.5937 2.8262 15.8863 2.8262 15.3263V12.6737C2.8262 12.1137 2.44304 11.4063 1.94199 11.1116L0.497778 10.2274C0.0261988 9.93263 -0.150643 9.28421 0.144094 8.81263L2.23673 5.18737C2.53146 4.68632 3.15041 4.50947 3.65146 4.77474L5.15462 5.57053C5.65567 5.83579 6.45146 5.83579 6.92304 5.54105L9.22199 4.21474C9.72304 3.92 10.1062 3.24211 10.1357 2.68211L10.1651 1.03158C10.1651 0.471579 10.6367 0 11.2262 0H15.382C15.942 0 16.4136 0.471579 16.443 1.03158L16.502 2.71158C16.502 3.27158 16.9146 3.94947 17.4157 4.24421L19.7146 5.57053C20.2157 5.86526 21.0115 5.86526 21.483 5.6L22.9862 4.80421C23.4873 4.53895 24.1062 4.71579 24.4009 5.21684L26.4936 8.8421C26.7883 9.34316 26.6115 9.9621 26.1399 10.2568L24.6957 11.1411C24.2241 11.4358 23.8115 12.1432 23.8409 12.7032V15.3558C23.8409 15.9158 24.2241 16.6232 24.7251 16.9179L26.1694 17.8021C26.6409 18.0968 26.8178 18.7453 26.523 19.2168L24.4304 22.8421C24.1357 23.3432 23.5167 23.52 23.0157 23.2547L21.542 22.4589C21.0409 22.1937 20.2451 22.1937 19.7736 22.4884L17.4746 23.8147C16.9736 24.1095 16.5904 24.7874 16.5609 25.3474L16.4725 26.9684C16.443 27.5284 16.0009 28 15.4115 28H11.2557C10.6957 28 10.2241 27.5284 10.1946 26.9684L10.1357 25.2884C10.1357 24.7284 9.72304 24.0505 9.22199 23.7558L6.92304 22.4295C6.42199 22.1347 5.6262 22.1347 5.15462 22.4L3.65146 23.1958ZM10.2536 19.3347C13.2009 21.0442 16.9441 20.0126 18.6536 17.0947C20.363 14.1474 19.3315 10.4042 16.4136 8.69474C13.4662 6.98526 9.72304 8.01684 8.01357 10.9347C6.30409 13.8526 7.3062 17.6253 10.2536 19.3347Z" fill="white"/>
</svg>
