<svg width="28" height="28" viewBox="0 0 28 28" fill="none" xmlns="http://www.w3.org/2000/svg">
<path fill-rule="evenodd" clip-rule="evenodd" d="M19.8525 28H8.14751C4.91527 28 2.29502 25.4995 2.29502 22.4151V15.5863C2.29502 14.5947 1.88227 13.6438 1.14756 12.9427C-0.554673 11.3183 -0.333383 8.62687 1.61351 7.27568L10.5577 1.06819C12.6099 -0.356064 15.3901 -0.356064 17.4423 1.06819L26.3865 7.27568C28.3334 8.62687 28.5547 11.3183 26.8524 12.9427C26.1177 13.6438 25.705 14.5947 25.705 15.5863V22.4151C25.705 25.4995 23.0847 28 19.8525 28ZM11.2 21.35C10.6201 21.35 10.15 21.8201 10.15 22.4C10.15 22.9799 10.6201 23.45 11.2 23.45H16.8C17.3799 23.45 17.85 22.9799 17.85 22.4C17.85 21.8201 17.3799 21.35 16.8 21.35H11.2Z" fill="#848484"/>
</svg>
