<svg width="28" height="28" viewBox="0 0 28 28" fill="none" xmlns="http://www.w3.org/2000/svg">
<path fill-rule="evenodd" clip-rule="evenodd" d="M22.4 0H5.6C2.50721 0 0 2.50721 0 5.6V22.4C0 25.0099 1.78545 27.2029 4.20155 27.824C4.64855 27.9389 5.11714 28 5.6 28H22.4C22.8829 28 23.3514 27.9389 23.7985 27.824C26.2146 27.2029 28 25.0099 28 22.4V5.6C28 2.50721 25.4928 0 22.4 0ZM14 15.4C17.4463 15.4 20.4096 17.6486 21.7161 20.87C22.3287 22.3804 21.0094 23.8 19.3795 23.8H8.62052C6.99064 23.8 5.67129 22.3804 6.28389 20.87C7.59044 17.6486 10.5537 15.4 14 15.4ZM14 4.2C16.3196 4.2 18.2 6.0804 18.2 8.4C18.2 10.7196 16.3196 12.6 14 12.6C11.6804 12.6 9.8 10.7196 9.8 8.4C9.8 6.0804 11.6804 4.2 14 4.2Z" fill="#848484"/>
</svg>
